<?xml version="1.0" encoding="iso-8859-1"?>
<!-- Generator: Adobe Illustrator 19.0.0, SVG Export Plug-In . SVG Version: 6.00 Build 0)  -->
<svg version="1.1" id="Layer_1" xmlns="http://www.w3.org/2000/svg" xmlns:xlink="http://www.w3.org/1999/xlink" x="0px" y="0px"
	 viewBox="0 0 512 512" style="enable-background:new 0 0 512 512;" xml:space="preserve">
<g>
	<g>
		<path d="M501.801,16.79H10.199C4.567,16.79,0,21.356,0,26.989v458.022c0,5.633,4.567,10.199,10.199,10.199h491.602
			c5.632,0,10.199-4.566,10.199-10.199V26.989C512,21.356,507.433,16.79,501.801,16.79z M20.398,37.188h225.402v395.885H20.398
			V37.188z M491.602,474.812H20.398v-21.34h471.203V474.812z M491.602,433.073H266.199V37.188h225.402V433.073z"/>
	</g>
</g>
<g>
	<g>
		<path d="M221.031,52.565H44.877c-5.632,0-10.199,4.566-10.199,10.199v344.733c0,5.633,4.567,10.199,10.199,10.199h176.154
			c5.632,0,10.199-4.566,10.199-10.199V62.764C231.23,57.131,226.663,52.565,221.031,52.565z M210.832,397.298H55.076V72.963
			h155.756V397.298z"/>
	</g>
</g>
<g>
	<g>
		<path d="M467.124,52.565H290.969c-5.632,0-10.199,4.566-10.199,10.199v344.733c0,5.633,4.567,10.199,10.199,10.199h176.155
			c5.632,0,10.199-4.566,10.199-10.199V62.764C477.323,57.131,472.755,52.565,467.124,52.565z M456.924,397.298H301.168V72.963
			h155.756V397.298z"/>
	</g>
</g>
<g>
	<g>
		<path d="M340.653,369.76h-6.12c-5.632,0-10.199,4.566-10.199,10.199c0,5.633,4.567,10.199,10.199,10.199h6.12
			c5.632,0,10.199-4.566,10.199-10.199C350.853,374.326,346.285,369.76,340.653,369.76z"/>
	</g>
</g>
<g>
	<g>
		<path d="M439.586,369.76h-67.315c-5.632,0-10.199,4.566-10.199,10.199c0,5.633,4.567,10.199,10.199,10.199h67.315
			c5.632,0,10.199-4.566,10.199-10.199C449.785,374.326,445.218,369.76,439.586,369.76z"/>
	</g>
</g>
<g>
	<g>
		<path d="M184.992,235.778c-25.444-9.759-42.539-34.627-42.539-61.882c0-27.254,17.095-52.123,42.539-61.882
			c3.943-1.513,6.547-5.299,6.547-9.523c0-4.224-2.604-8.01-6.547-9.523c-9.91-3.8-20.346-5.727-31.023-5.727
			c-47.782,0-86.654,38.873-86.654,86.654c0,47.782,38.872,86.654,86.654,86.654c10.678,0,21.115-1.927,31.023-5.727
			c3.943-1.513,6.547-5.299,6.547-9.523S188.935,237.291,184.992,235.778z M87.713,173.896c0-36.152,29.102-65.635,65.113-66.246
			c-5.701,4.815-10.792,10.383-15.149,16.606c-10.221,14.598-15.622,31.763-15.622,49.641c0,17.877,5.403,35.042,15.622,49.641
			c4.356,6.223,9.448,11.79,15.149,16.605C116.816,239.532,87.713,210.05,87.713,173.896z"/>
	</g>
</g>
<g>
	<g>
		<path d="M193.287,319.647c-1.201-3.694-4.393-6.385-8.235-6.943l-22.78-3.311l-10.187-20.642c-1.72-3.481-5.264-5.685-9.147-5.685
			c-3.883,0-7.428,2.204-9.147,5.686l-10.186,20.641l-22.78,3.311c-3.842,0.558-7.033,3.249-8.233,6.942
			c-1.199,3.692-0.199,7.745,2.58,10.455l16.483,16.068l-3.891,22.687c-0.657,3.826,0.917,7.693,4.058,9.976
			c1.777,1.291,3.882,1.948,5.996,1.948c1.624,0,3.253-0.387,4.745-1.171l20.375-10.711l20.375,10.711
			c3.434,1.805,7.599,1.505,10.741-0.776c3.14-2.282,4.713-6.149,4.058-9.975l-3.89-22.688l16.483-16.068
			C193.487,327.392,194.487,323.339,193.287,319.647z M156.144,335.304c-2.403,2.343-3.5,5.719-2.933,9.027l1.305,7.605l-6.829-3.59
			c-1.485-0.781-3.116-1.172-4.746-1.172c-1.63,0-3.261,0.391-4.746,1.172l-6.828,3.59l1.305-7.604
			c0.567-3.309-0.53-6.685-2.933-9.027l-5.525-5.385l7.635-1.11c3.322-0.482,6.193-2.569,7.679-5.58l3.414-6.918l3.415,6.918
			c1.486,3.01,4.357,5.097,7.679,5.579l7.635,1.11L156.144,335.304z"/>
	</g>
</g>
<g>
	<g>
		<path d="M445.927,126.879c-1.2-3.692-4.392-6.383-8.233-6.942l-22.78-3.311l-10.186-20.641c-1.719-3.482-5.264-5.686-9.147-5.686
			s-7.428,2.204-9.147,5.685l-10.187,20.642l-22.78,3.311c-3.842,0.558-7.033,3.249-8.233,6.942
			c-1.199,3.692-0.199,7.745,2.58,10.455l16.481,16.069l-3.89,22.688c-0.656,3.826,0.917,7.693,4.058,9.975
			s7.305,2.582,10.741,0.776l20.375-10.711l20.375,10.711c1.492,0.784,3.122,1.171,4.745,1.171c2.114,0,4.219-0.657,5.996-1.948
			c3.14-2.282,4.714-6.149,4.058-9.976l-3.891-22.687l16.483-16.068C446.126,134.624,447.126,130.571,445.927,126.879z
			 M408.782,142.54c-2.403,2.343-3.5,5.719-2.933,9.027l1.305,7.604l-6.828-3.59c-2.97-1.563-6.522-1.563-9.492,0l-6.829,3.59
			l1.305-7.604c0.567-3.309-0.53-6.684-2.933-9.027l-5.525-5.385l7.636-1.11c3.322-0.482,6.193-2.569,7.679-5.579l3.415-6.918
			l3.414,6.918c1.486,3.011,4.357,5.098,7.679,5.58l7.635,1.11L408.782,142.54z"/>
	</g>
</g>
<g>
	<g>
		<path d="M418.388,269.668c-1.2-3.692-4.392-6.383-8.233-6.942l-22.78-3.311l-10.186-20.641c-1.719-3.482-5.264-5.686-9.147-5.686
			s-7.428,2.204-9.147,5.685l-10.187,20.642l-22.78,3.311c-3.842,0.558-7.033,3.249-8.233,6.942
			c-1.199,3.692-0.199,7.745,2.58,10.455l16.483,16.068l-3.892,22.689c-0.656,3.826,0.917,7.693,4.058,9.975
			s7.306,2.582,10.741,0.776l20.375-10.711l20.375,10.711c1.492,0.784,3.122,1.171,4.745,1.171c2.114,0,4.219-0.657,5.996-1.948
			c3.14-2.282,4.714-6.149,4.058-9.976l-3.891-22.687l16.483-16.068C418.588,277.413,419.587,273.36,418.388,269.668z
			 M381.244,285.329c-2.403,2.343-3.5,5.719-2.933,9.027l1.305,7.603l-6.828-3.59c-2.97-1.563-6.522-1.563-9.492,0l-6.829,3.59
			l1.304-7.604c0.567-3.309-0.53-6.684-2.933-9.027l-5.525-5.385l7.636-1.11c3.322-0.482,6.193-2.569,7.679-5.579l3.415-6.918
			l3.414,6.918c1.486,3.011,4.357,5.098,7.679,5.58l7.635,1.11L381.244,285.329z"/>
	</g>
</g>
<g>
</g>
<g>
</g>
<g>
</g>
<g>
</g>
<g>
</g>
<g>
</g>
<g>
</g>
<g>
</g>
<g>
</g>
<g>
</g>
<g>
</g>
<g>
</g>
<g>
</g>
<g>
</g>
<g>
</g>
</svg>
